<?xml version="1.0" encoding="UTF-8"?>
<!DOCTYPE svg PUBLIC "-//W3C//DTD SVG 1.1//EN" "http://www.w3.org/Graphics/SVG/1.1/DTD/svg11.dtd">
<svg xmlns="http://www.w3.org/2000/svg" version="1.1" width="243px" height="198px" style="shape-rendering:geometricPrecision; text-rendering:geometricPrecision; image-rendering:optimizeQuality; fill-rule:evenodd; clip-rule:evenodd" xmlns:xlink="http://www.w3.org/1999/xlink">
<g><path style="opacity:0.208" fill="#fcf0c8" d="M 53.5,95.5 C 52.8333,95.5 52.5,95.1667 52.5,94.5C 52.5,93.8333 52.1667,93.5 51.5,93.5C 51.5,92.8333 51.1667,92.5 50.5,92.5C 50.1667,91.1667 49.8333,91.1667 49.5,92.5C 48.8333,92.5 48.5,92.1667 48.5,91.5C 48.1667,90.1667 47.8333,90.1667 47.5,91.5C 46.8333,91.5 46.5,91.1667 46.5,90.5C 46.5,90.1667 46.5,89.8333 46.5,89.5C 47.5,89.5 48.5,89.5 49.5,89.5C 54.875,93.9151 56.5417,92.5817 54.5,85.5C 53.1482,84.4756 51.8149,83.4756 50.5,82.5C 49.8333,81.8333 49.1667,81.1667 48.5,80.5C 43.7265,78.0332 38.7265,77.8665 33.5,80C 32.035,81.7742 30.7017,83.6075 29.5,85.5C 27.3455,87.6174 26.3455,90.284 26.5,93.5C 25.5489,92.0813 25.2155,90.4147 25.5,88.5C 26.404,87.791 26.7373,86.791 26.5,85.5C 29.0967,84.0675 30.7633,81.9009 31.5,79C 43.8671,74.4547 52.8671,78.1214 58.5,90C 57.7402,91.4411 57.0736,92.9411 56.5,94.5C 55.675,95.3857 54.675,95.719 53.5,95.5 Z"/></g>
<g><path style="opacity:0.004" fill="#f1f2f1" d="M 118.5,79.5 C 119.833,80.1667 119.833,80.1667 118.5,79.5 Z"/></g>
<g><path style="opacity:1" fill="#f99708" d="M 48.5,80.5 C 49.1667,81.1667 49.8333,81.8333 50.5,82.5C 51.259,84.4358 52.259,86.2691 53.5,88C 53.1667,88.5 52.8333,89 52.5,89.5C 50.8273,87.9137 48.8273,87.2471 46.5,87.5C 43.5,87.5 40.5,87.5 37.5,87.5C 36.448,87.6495 35.448,87.4828 34.5,87C 39.7828,84.0998 39.1161,82.7664 32.5,83C 32.8333,82.6667 33.1667,82.3333 33.5,82C 38.4012,80.6746 43.4012,80.1746 48.5,80.5 Z"/></g>
<g><path style="opacity:0.035" fill="#e7e8e7" d="M 111.5,80.5 C 112.833,81.1667 112.833,81.1667 111.5,80.5 Z"/></g>
<g><path style="opacity:1" fill="#f09b1e" d="M 48.5,80.5 C 43.4012,80.1746 38.4012,80.6746 33.5,82C 33.1667,82.3333 32.8333,82.6667 32.5,83C 39.1161,82.7664 39.7828,84.0998 34.5,87C 35.448,87.4828 36.448,87.6495 37.5,87.5C 35.7952,89.1921 33.7952,90.5254 31.5,91.5C 30.5,91.5 29.5,91.5 28.5,91.5C 28.5172,89.4352 28.8505,87.4352 29.5,85.5C 30.7017,83.6075 32.035,81.7742 33.5,80C 38.7265,77.8665 43.7265,78.0332 48.5,80.5 Z"/></g>
<g><path style="opacity:1" fill="#de9c3a" d="M 50.5,82.5 C 51.8149,83.4756 53.1482,84.4756 54.5,85.5C 56.5417,92.5817 54.875,93.9151 49.5,89.5C 48.5,88.8333 47.5,88.1667 46.5,87.5C 48.8273,87.2471 50.8273,87.9137 52.5,89.5C 52.8333,89 53.1667,88.5 53.5,88C 52.259,86.2691 51.259,84.4358 50.5,82.5 Z"/></g>
<g><path style="opacity:0.633" fill="#828282" d="M 150.5,108.5 C 149.081,109.451 147.415,109.784 145.5,109.5C 145.5,100.167 145.5,90.8333 145.5,81.5C 147.5,81.5 149.5,81.5 151.5,81.5C 151.827,90.6822 151.493,99.6822 150.5,108.5 Z"/></g>
<g><path style="opacity:1" fill="#070707" d="M 150.5,108.5 C 149.167,108.5 147.833,108.5 146.5,108.5C 146.5,99.8333 146.5,91.1667 146.5,82.5C 147.833,82.5 149.167,82.5 150.5,82.5C 150.5,91.1667 150.5,99.8333 150.5,108.5 Z"/></g>
<g><path style="opacity:1" fill="#191919" d="M 147.5,83.5 C 148.823,86.9377 149.49,90.771 149.5,95C 149.638,99.3439 149.138,103.511 148,107.5C 147.5,99.5069 147.334,91.5069 147.5,83.5 Z"/></g>
<g><path style="opacity:0.008" fill="#f0f1f0" d="M 109.5,89.5 C 108.833,88.1667 108.833,88.1667 109.5,89.5 Z"/></g>
<g><path style="opacity:0.031" fill="#ebeceb" d="M 120.5,88.5 C 121.833,89.1667 121.833,89.1667 120.5,88.5 Z"/></g>
<g><path style="opacity:0.043" fill="#eaebea" d="M 124.5,88.5 C 125.833,89.1667 125.833,89.1667 124.5,88.5 Z"/></g>
<g><path style="opacity:0.129" fill="#d7d8d7" d="M 157.5,89.5 C 156.833,88.1667 156.833,88.1667 157.5,89.5 Z"/></g>
<g><path style="opacity:0.016" fill="#eeefee" d="M 193.5,88.5 C 194.833,89.1667 194.833,89.1667 193.5,88.5 Z"/></g>
<g><path style="opacity:0.004" fill="#f3f4f3" d="M 212.5,88.5 C 213.833,89.1667 213.833,89.1667 212.5,88.5 Z"/></g>
<g><path style="opacity:0.196" fill="#fdedba" d="M 37.5,87.5 C 40.5,87.5 43.5,87.5 46.5,87.5C 47.5,88.1667 48.5,88.8333 49.5,89.5C 48.5,89.5 47.5,89.5 46.5,89.5C 45.8333,89.5 45.1667,89.5 44.5,89.5C 44.1667,89.5 43.8333,89.5 43.5,89.5C 42.5,88.1667 41.5,88.1667 40.5,89.5C 40.1667,89.5 39.8333,89.5 39.5,89.5C 38.5084,89.3284 37.8417,89.6618 37.5,90.5C 33.6087,91.5588 30.7754,93.8921 29,97.5C 28.3292,96.7476 27.4959,96.4142 26.5,96.5C 26.5,96.1667 26.5,95.8333 26.5,95.5C 29.344,95.6574 31.0107,94.324 31.5,91.5C 33.7952,90.5254 35.7952,89.1921 37.5,87.5 Z"/></g>
<g><path style="opacity:0.012" fill="#f0f0f0" d="M 109.5,89.5 C 110.525,89.8966 110.692,90.5632 110,91.5C 109.536,90.9056 109.369,90.2389 109.5,89.5 Z"/></g>
<g><path style="opacity:0.035" fill="#edeeed" d="M 124.5,89.5 C 123.833,90.1667 123.833,90.1667 124.5,89.5 Z"/></g>
<g><path style="opacity:1" fill="#343434" d="M 141.5,103.5 C 141.665,100.482 141.498,97.4816 141,94.5C 140.667,95.8333 140.333,97.1667 140,98.5C 139.692,97.6919 139.192,97.0253 138.5,96.5C 137.83,98.2914 137.163,99.9581 136.5,101.5C 136.846,98.3979 136.179,95.5645 134.5,93C 131.66,92.0339 129.66,92.8672 128.5,95.5C 127.833,93.8333 127.167,92.1667 126.5,90.5C 126.611,89.8826 126.944,89.3826 127.5,89C 139.785,86.8079 144.452,91.6413 141.5,103.5 Z"/></g>
<g><path style="opacity:0.027" fill="#eeefee" d="M 198.5,90.5 C 197.833,89.1667 197.833,89.1667 198.5,90.5 Z"/></g>
<g><path style="opacity:1" fill="#1d95d7" d="M 23.5,79.5 C 23.4955,83.5341 23.1621,87.5341 22.5,91.5C 21.325,91.281 20.325,91.6143 19.5,92.5C 19.0234,93.931 18.3567,95.2643 17.5,96.5C 17.1667,95.6667 16.8333,94.8333 16.5,94C 17.9366,90.6674 18.9366,87.1674 19.5,83.5C 19.8333,81.1667 21.1667,79.8333 23.5,79.5 Z"/></g>
<g><path style="opacity:0.02" fill="#daf9fb" d="M 25.5,86.5 C 25.5,87.1667 25.5,87.8333 25.5,88.5C 25.2155,90.4147 25.5489,92.0813 26.5,93.5C 26.5,94.1667 26.5,94.8333 26.5,95.5C 25.8333,95.5 25.5,95.8333 25.5,96.5C 24.1667,93.1667 24.1667,89.8333 25.5,86.5 Z"/></g>
<g><path style="opacity:0.994" fill="#2d2d2d" d="M 172.5,93.5 C 171.627,97.4937 170.46,97.4937 169,93.5C 168.601,93.7284 168.435,94.0618 168.5,94.5C 168.167,94.5 167.833,94.5 167.5,94.5C 165.229,91.8532 162.896,91.8532 160.5,94.5C 160.631,93.7611 160.464,93.0944 160,92.5C 158.67,93.5822 157.17,94.2488 155.5,94.5C 155.893,92.7162 156.559,91.0495 157.5,89.5C 161.112,88.4886 164.779,88.3219 168.5,89C 170.751,89.7475 172.084,91.2475 172.5,93.5 Z"/></g>
<g><path style="opacity:0.008" fill="#eff0ef" d="M 174.5,90.5 C 175.833,91.1667 175.833,91.1667 174.5,90.5 Z"/></g>
<g><path style="opacity:1" fill="#313131" d="M 86.5,91.5 C 85.8166,93.1765 84.4832,93.8432 82.5,93.5C 80.9582,92.6993 79.2915,92.366 77.5,92.5C 78.2625,91.7321 79.2625,91.2321 80.5,91C 79.9747,90.3076 79.3081,89.8076 78.5,89.5C 76.7105,90.8772 74.7105,91.8772 72.5,92.5C 71.5713,93.6888 71.238,95.0222 71.5,96.5C 69.7068,93.0529 70.7068,90.5529 74.5,89C 77.5,88.3333 80.5,88.3333 83.5,89C 84.9423,89.3768 85.9423,90.2101 86.5,91.5 Z"/></g>
<g><path style="opacity:0.078" fill="#e3e4e3" d="M 120.5,91.5 C 121.833,92.1667 121.833,92.1667 120.5,91.5 Z"/></g>
<g><path style="opacity:0.02" fill="#eff0ef" d="M 152.5,91.5 C 153.833,92.1667 153.833,92.1667 152.5,91.5 Z"/></g>
<g><path style="opacity:1" fill="#2a2a2a" d="M 193.5,92.5 C 191.726,93.0169 190.059,93.3502 188.5,93.5C 186.5,92.1667 184.5,92.1667 182.5,93.5C 181.833,93.8333 181.167,94.1667 180.5,94.5C 179.061,95.5092 177.728,95.1759 176.5,93.5C 179.932,88.6954 184.599,87.1954 190.5,89C 192.063,89.7589 193.063,90.9256 193.5,92.5 Z"/></g>
<g><path style="opacity:1" fill="#313131" d="M 203.5,93.5 C 203.587,90.4017 203.087,90.0684 202,92.5C 201.122,111.504 200.122,111.837 199,93.5C 198.501,98.4889 198.334,103.489 198.5,108.5C 197.194,102.599 197.194,96.5992 198.5,90.5C 202.187,88.6571 206.187,87.9905 210.5,88.5C 210.5,89.8333 210.5,91.1667 210.5,92.5C 208.05,92.298 205.717,92.6314 203.5,93.5 Z"/></g>
<g><path style="opacity:1" fill="#e0a144" d="M 29.5,85.5 C 28.8505,87.4352 28.5172,89.4352 28.5,91.5C 29.5,91.5 30.5,91.5 31.5,91.5C 31.0107,94.324 29.344,95.6574 26.5,95.5C 26.5,94.8333 26.5,94.1667 26.5,93.5C 26.3455,90.284 27.3455,87.6174 29.5,85.5 Z"/></g>
<g><path style="opacity:0.933" fill="#7b65a2" d="M 39.5,89.5 C 39.8333,89.5 40.1667,89.5 40.5,89.5C 41.5,89.5 42.5,89.5 43.5,89.5C 43.8333,89.5 44.1667,89.5 44.5,89.5C 44.8417,90.3382 45.5084,90.6716 46.5,90.5C 46.5,91.1667 46.8333,91.5 47.5,91.5C 47.8333,91.5 48.1667,91.5 48.5,91.5C 48.5,92.1667 48.8333,92.5 49.5,92.5C 49.8333,92.5 50.1667,92.5 50.5,92.5C 51.1667,92.5 51.5,92.8333 51.5,93.5C 51.5,93.8333 51.5,94.1667 51.5,94.5C 49.1445,93.4249 46.8111,93.4249 44.5,94.5C 45.3094,96.0709 45.6427,97.7376 45.5,99.5C 42.7823,96.4546 40.1156,93.4546 37.5,90.5C 38.4916,90.6716 39.1583,90.3382 39.5,89.5 Z"/></g>
<g><path style="opacity:1" fill="#313131" d="M 107.5,90.5 C 106.85,90.8039 106.183,91.1373 105.5,91.5C 104.304,91.1543 104.304,90.6543 105.5,90C 103.272,89.1799 101.272,89.5132 99.5,91C 100.416,91.2784 101.082,91.7784 101.5,92.5C 99.326,92.7497 97.6594,93.7497 96.5,95.5C 96.631,94.7611 96.4643,94.0944 96,93.5C 94.8756,96.8418 93.3756,97.1751 91.5,94.5C 91.0618,94.5654 90.7284,94.3988 90.5,94C 94.6034,88.8343 99.9367,87.1677 106.5,89C 107.056,89.3826 107.389,89.8826 107.5,90.5 Z"/></g>
<g><path style="opacity:0.047" fill="#ebeceb" d="M 173.5,92.5 C 174.833,93.1667 174.833,93.1667 173.5,92.5 Z"/></g>
<g><path style="opacity:0.004" fill="#f7f7f7" d="M 77.5,94.5 C 77.8966,93.475 78.5632,93.3083 79.5,94C 78.9056,94.4643 78.2389,94.631 77.5,94.5 Z"/></g>
<g><path style="opacity:0.729" fill="#6d6d6d" d="M 86.5,91.5 C 87.404,92.209 87.7373,93.209 87.5,94.5C 85.5853,94.7845 83.9187,94.4511 82.5,93.5C 84.4832,93.8432 85.8166,93.1765 86.5,91.5 Z"/></g>
<g><path style="opacity:0.082" fill="#e3e4e3" d="M 120.5,93.5 C 121.833,94.1667 121.833,94.1667 120.5,93.5 Z"/></g>
<g><path style="opacity:1" fill="#171717" d="M 126.5,90.5 C 127.167,92.1667 127.833,93.8333 128.5,95.5C 127.532,97.6074 127.198,99.9407 127.5,102.5C 126.167,102.5 124.833,102.5 123.5,102.5C 123.5,99.8333 123.5,97.1667 123.5,94.5C 123.738,92.5956 124.738,91.2623 126.5,90.5 Z"/></g>
<g><path style="opacity:0.997" fill="#262626" d="M 193.5,92.5 C 194.8,97.4001 194.8,102.4 193.5,107.5C 192.833,107.833 192.167,108.167 191.5,108.5C 187.833,108.5 184.167,108.5 180.5,108.5C 179.508,108.672 178.842,108.338 178.5,107.5C 178.811,106.522 179.478,105.855 180.5,105.5C 181.527,106.791 182.527,106.791 183.5,105.5C 185.216,105.371 186.883,105.038 188.5,104.5C 189.451,103.081 189.784,101.415 189.5,99.5C 186.612,100.01 184.279,99.3435 182.5,97.5C 182.5,97.1667 182.5,96.8333 182.5,96.5C 184.5,96.5 186.5,96.5 188.5,96.5C 188.5,95.5 188.5,94.5 188.5,93.5C 190.059,93.3502 191.726,93.0169 193.5,92.5 Z"/></g>
<g><path style="opacity:1" fill="#319ac7" d="M 26.5,85.5 C 25.8333,85.5 25.5,85.8333 25.5,86.5C 24.1667,89.8333 24.1667,93.1667 25.5,96.5C 25.8333,96.5 26.1667,96.5 26.5,96.5C 27.6691,100.344 30.0024,103.344 33.5,105.5C 32.9953,106.919 31.9953,107.585 30.5,107.5C 29.1667,107.5 27.8333,107.5 26.5,107.5C 25.8333,107.5 25.1667,107.5 24.5,107.5C 21.1667,104.833 18.1667,101.833 15.5,98.5C 13.3672,92.4768 14.7005,87.4768 19.5,83.5C 18.9366,87.1674 17.9366,90.6674 16.5,94C 16.8333,94.8333 17.1667,95.6667 17.5,96.5C 18.3567,95.2643 19.0234,93.931 19.5,92.5C 20.325,91.6143 21.325,91.281 22.5,91.5C 23.1621,87.5341 23.4955,83.5341 23.5,79.5C 25.1379,78.8411 26.8045,78.1744 28.5,77.5C 28.8333,78.1667 29.1667,78.8333 29.5,79.5C 28.4814,81.5107 27.4814,83.5107 26.5,85.5 Z"/></g>
<g><path style="opacity:0.016" fill="#f2f3f2" d="M 80.5,94.5 C 81.8333,95.1667 81.8333,95.1667 80.5,94.5 Z"/></g>
<g><path style="opacity:0.029" fill="#f2f2f2" d="M 175.5,96.5 C 175.167,96.5 174.833,96.5 174.5,96.5C 174.833,93.8333 175.167,93.8333 175.5,96.5 Z"/></g>
<g><path style="opacity:0.006" fill="#dedede" d="M 182.5,93.5 C 182.5,94.5 182.5,95.5 182.5,96.5C 182.5,96.8333 182.5,97.1667 182.5,97.5C 181.833,97.5 181.167,97.5 180.5,97.5C 181.833,96.5 181.833,95.5 180.5,94.5C 181.167,94.1667 181.833,93.8333 182.5,93.5 Z"/></g>
<g><path style="opacity:1" fill="#242424" d="M 203.5,93.5 C 203.5,98.8333 203.5,104.167 203.5,109.5C 201.585,109.784 199.919,109.451 198.5,108.5C 198.334,103.489 198.501,98.4889 199,93.5C 200.122,111.837 201.122,111.504 202,92.5C 203.087,90.0684 203.587,90.4017 203.5,93.5 Z"/></g>
<g><path style="opacity:0.016" fill="#efefef" d="M 208.5,93.5 C 209.525,93.8966 209.692,94.5632 209,95.5C 208.536,94.9056 208.369,94.2389 208.5,93.5 Z"/></g>
<g><path style="opacity:0.998" fill="#333333" d="M 229.5,93.5 C 229.5,98.5 229.5,103.5 229.5,108.5C 228.167,108.5 226.833,108.5 225.5,108.5C 224.674,104.018 224.174,99.3514 224,94.5C 222.031,91.8761 220.198,91.8761 218.5,94.5C 217.807,98.5655 217.14,102.732 216.5,107C 216.833,107.333 217.167,107.667 217.5,108C 214.94,110.116 212.607,109.949 210.5,107.5C 210.493,103.337 210.66,99.0041 211,94.5C 211.774,92.0607 213.274,90.2273 215.5,89C 218.833,88.3333 222.167,88.3333 225.5,89C 227.751,89.7475 229.084,91.2475 229.5,93.5 Z"/></g>
<g><path style="opacity:0.031" fill="#edeeed" d="M 221.5,94.5 C 220.833,93.1667 220.833,93.1667 221.5,94.5 Z"/></g>
<g><path style="opacity:0.071" fill="#e5e6e5" d="M 218.5,94.5 C 219.833,95.1667 219.833,95.1667 218.5,94.5 Z"/></g>
<g><path style="opacity:0.024" fill="#eff0ef" d="M 221.5,94.5 C 222.833,95.1667 222.833,95.1667 221.5,94.5 Z"/></g>
<g><path style="opacity:0.008" fill="#f3f4f3" d="M 83.5,95.5 C 84.8333,96.1667 84.8333,96.1667 83.5,95.5 Z"/></g>
<g><path style="opacity:1" fill="#353535" d="M 107.5,90.5 C 108.315,91.4293 109.148,92.4293 110,93.5C 110.808,97.0267 110.641,100.36 109.5,103.5C 109.665,100.482 109.498,97.4816 109,94.5C 108.667,95.5 108.333,96.5 108,97.5C 107.581,96.3279 106.915,95.3279 106,94.5C 105.814,97.0356 105.314,99.369 104.5,101.5C 104.663,99.1432 104.497,96.8098 104,94.5C 103.292,93.6195 102.458,92.9528 101.5,92.5C 101.082,91.7784 100.416,91.2784 99.5,91C 101.272,89.5132 103.272,89.1799 105.5,90C 104.304,90.6543 104.304,91.1543 105.5,91.5C 106.183,91.1373 106.85,90.8039 107.5,90.5 Z"/></g>
<g><path style="opacity:1" fill="#141414" d="M 118.5,108.5 C 117.167,109.833 115.833,109.833 114.5,108.5C 114.5,99.8333 114.5,91.1667 114.5,82.5C 115.833,82.5 117.167,82.5 118.5,82.5C 118.5,91.1667 118.5,99.8333 118.5,108.5 Z"/></g>
<g><path style="opacity:0.615" fill="#7d7d7d" d="M 120.5,92.5 C 120.5,92.8333 120.5,93.1667 120.5,93.5C 119.833,98.5 119.167,103.5 118.5,108.5C 118.5,99.8333 118.5,91.1667 118.5,82.5C 117.167,82.5 115.833,82.5 114.5,82.5C 114.5,91.1667 114.5,99.8333 114.5,108.5C 113.507,99.6822 113.173,90.6822 113.5,81.5C 115.5,81.5 117.5,81.5 119.5,81.5C 119.185,85.3714 119.518,89.0381 120.5,92.5 Z"/></g>
<g><path style="opacity:1" fill="#1c1c1c" d="M 115.5,83.5 C 116.239,83.369 116.906,83.5357 117.5,84C 117.761,91.6505 117.428,99.4838 116.5,107.5C 115.502,99.5277 115.169,91.5277 115.5,83.5 Z"/></g>
<g><path style="opacity:0.008" fill="#f2f3f2" d="M 120.5,95.5 C 121.833,96.1667 121.833,96.1667 120.5,95.5 Z"/></g>
<g><path style="opacity:0.586" fill="#7f7f7f" d="M 229.5,93.5 C 230.488,98.6405 230.821,103.974 230.5,109.5C 228.585,109.784 226.919,109.451 225.5,108.5C 226.833,108.5 228.167,108.5 229.5,108.5C 229.5,103.5 229.5,98.5 229.5,93.5 Z"/></g>
<g><path style="opacity:0.922" fill="#727272" d="M 172.5,93.5 C 172.833,93.5 173.167,93.5 173.5,93.5C 173.263,94.791 173.596,95.791 174.5,96.5C 174.5,97.1667 174.5,97.8333 174.5,98.5C 174.167,98.5 173.833,98.5 173.5,98.5C 172.699,96.9582 172.366,95.2915 172.5,93.5 Z"/></g>
<g><path style="opacity:0.059" fill="#eff0ef" d="M 175.5,96.5 C 176.833,97.1667 176.833,97.1667 175.5,96.5 Z"/></g>
<g><path style="opacity:0.997" fill="#1d1d1d" d="M 77.5,92.5 C 76.3657,94.9601 77.3657,96.2934 80.5,96.5C 81.5167,98.4717 80.85,99.805 78.5,100.5C 77.8333,100.5 77.1667,100.5 76.5,100.5C 75.3285,99.6554 73.9952,98.9887 72.5,98.5C 71.6618,98.1583 71.3284,97.4916 71.5,96.5C 71.238,95.0222 71.5713,93.6888 72.5,92.5C 74.7105,91.8772 76.7105,90.8772 78.5,89.5C 79.3081,89.8076 79.9747,90.3076 80.5,91C 79.2625,91.2321 78.2625,91.7321 77.5,92.5 Z"/></g>
<g><path style="opacity:1" fill="#161616" d="M 109.5,103.5 C 108.85,103.196 108.183,102.863 107.5,102.5C 107.13,106.548 105.797,107.215 103.5,104.5C 104.11,103.609 104.443,102.609 104.5,101.5C 105.314,99.369 105.814,97.0356 106,94.5C 106.915,95.3279 107.581,96.3279 108,97.5C 108.333,96.5 108.667,95.5 109,94.5C 109.498,97.4816 109.665,100.482 109.5,103.5 Z"/></g>
<g><path style="opacity:0.999" fill="#181818" d="M 160.5,94.5 C 159.596,95.209 159.263,96.209 159.5,97.5C 162.5,97.5 165.5,97.5 168.5,97.5C 168.5,96.5 168.5,95.5 168.5,94.5C 168.435,94.0618 168.601,93.7284 169,93.5C 170.46,97.4937 171.627,97.4937 172.5,93.5C 172.366,95.2915 172.699,96.9582 173.5,98.5C 173.5,98.8333 173.5,99.1667 173.5,99.5C 168.833,99.5 164.167,99.5 159.5,99.5C 159.5,100.5 159.5,101.5 159.5,102.5C 158.041,102.433 156.708,102.766 155.5,103.5C 154.167,100.5 154.167,97.5 155.5,94.5C 157.17,94.2488 158.67,93.5822 160,92.5C 160.464,93.0944 160.631,93.7611 160.5,94.5 Z"/></g>
<g><path style="opacity:0.443" fill="#949494" d="M 160.5,94.5 C 161.152,95.7251 162.319,96.3917 164,96.5C 165.681,96.3917 166.848,95.7251 167.5,94.5C 167.833,94.5 168.167,94.5 168.5,94.5C 168.5,95.5 168.5,96.5 168.5,97.5C 165.5,97.5 162.5,97.5 159.5,97.5C 159.263,96.209 159.596,95.209 160.5,94.5 Z"/></g>
<g><path style="opacity:1" fill="#434343" d="M 178.5,98.5 C 178.842,97.6618 179.508,97.3284 180.5,97.5C 181.167,97.5 181.833,97.5 182.5,97.5C 184.279,99.3435 186.612,100.01 189.5,99.5C 189.784,101.415 189.451,103.081 188.5,104.5C 188.5,103.167 188.5,101.833 188.5,100.5C 186.585,100.216 184.919,100.549 183.5,101.5C 183.167,101.5 182.833,101.5 182.5,101.5C 181.455,100.122 180.122,99.1224 178.5,98.5 Z"/></g>
<g><path style="opacity:0.022" fill="#f5f5f5" d="M 174.5,98.5 C 175.239,98.369 175.906,98.5357 176.5,99C 175.563,99.6917 174.897,99.525 174.5,98.5 Z"/></g>
<g><path style="opacity:0.078" fill="#dbecf8" d="M 15.5,98.5 C 18.1667,101.833 21.1667,104.833 24.5,107.5C 24.2849,108.734 24.9516,108.734 26.5,107.5C 27.8333,107.5 29.1667,107.5 30.5,107.5C 31.209,108.404 32.209,108.737 33.5,108.5C 32.4324,109.434 31.099,109.768 29.5,109.5C 29.1667,108.167 28.8333,108.167 28.5,109.5C 27.5,109.5 26.5,109.5 25.5,109.5C 24.0413,109.567 22.7079,109.234 21.5,108.5C 21.5,108.167 21.5,107.833 21.5,107.5C 20.5084,107.672 19.8417,107.338 19.5,106.5C 20.8333,106.167 20.8333,105.833 19.5,105.5C 19.5,104.833 19.1667,104.5 18.5,104.5C 18.5,103.833 18.1667,103.5 17.5,103.5C 16.0582,102.18 15.3915,100.514 15.5,98.5 Z"/></g>
<g><path style="opacity:0.022" fill="#e2e2e2" d="M 72.5,98.5 C 73.9952,98.9887 75.3285,99.6554 76.5,100.5C 74.5283,101.517 73.195,100.85 72.5,98.5 Z"/></g>
<g><path style="opacity:1" fill="#6d52a0" d="M 51.5,94.5 C 51.8333,94.5 52.1667,94.5 52.5,94.5C 52.5,95.1667 52.8333,95.5 53.5,95.5C 54.1098,96.391 54.4431,97.391 54.5,98.5C 54.6282,102.881 54.2949,107.215 53.5,111.5C 52.5,111.5 51.5,111.5 50.5,111.5C 50.3491,115.314 48.3491,116.981 44.5,116.5C 44.5,115.5 44.5,114.5 44.5,113.5C 45.5,113.5 46.5,113.5 47.5,113.5C 47.6655,109.486 47.4988,105.486 47,101.5C 46.6174,100.944 46.1174,100.611 45.5,100.5C 45.5,100.167 45.5,99.8333 45.5,99.5C 45.6427,97.7376 45.3094,96.0709 44.5,94.5C 46.8111,93.4249 49.1445,93.4249 51.5,94.5 Z"/></g>
<g><path style="opacity:1" fill="#151515" d="M 96.5,95.5 C 96.5,97.5 96.5,99.5 96.5,101.5C 96.2504,102.922 95.417,103.922 94,104.5C 92.2492,101.748 91.4158,98.7485 91.5,95.5C 91.5,95.1667 91.5,94.8333 91.5,94.5C 93.3756,97.1751 94.8756,96.8418 96,93.5C 96.4643,94.0944 96.631,94.7611 96.5,95.5 Z"/></g>
<g><path style="opacity:1" fill="#1c1c1c" d="M 141.5,103.5 C 141.611,104.117 141.944,104.617 142.5,105C 141.584,105.278 140.918,105.778 140.5,106.5C 140.167,106.5 139.833,106.5 139.5,106.5C 138.5,106.833 137.833,107.5 137.5,108.5C 137.167,108.5 136.833,108.5 136.5,108.5C 134.5,108.5 132.5,108.5 130.5,108.5C 131.37,106.726 132.703,105.393 134.5,104.5C 135.167,103.5 135.833,102.5 136.5,101.5C 137.163,99.9581 137.83,98.2914 138.5,96.5C 139.192,97.0253 139.692,97.6919 140,98.5C 140.333,97.1667 140.667,95.8333 141,94.5C 141.498,97.4816 141.665,100.482 141.5,103.5 Z"/></g>
<g><path style="opacity:0.01" fill="#f5f5f5" d="M 183.5,101.5 C 184.873,101.343 186.207,101.51 187.5,102C 186.448,103.119 185.281,103.619 184,103.5C 183.536,102.906 183.369,102.239 183.5,101.5 Z"/></g>
<g><path style="opacity:0.145" fill="#dedede" d="M 74.5,103.5 C 73.1667,103.5 71.8333,103.5 70.5,103.5C 72.0322,101.219 73.3656,101.219 74.5,103.5 Z"/></g>
<g><path style="opacity:1" fill="#2c2c2c" d="M 80.5,96.5 C 86.1925,97.0139 88.6925,100.014 88,105.5C 86.871,107.141 85.371,108.141 83.5,108.5C 82.3915,107.71 81.0581,107.21 79.5,107C 80.056,106.617 80.3893,106.117 80.5,105.5C 81.0906,104.849 81.7573,104.182 82.5,103.5C 81.3757,102.141 80.0423,101.141 78.5,100.5C 80.85,99.805 81.5167,98.4717 80.5,96.5 Z"/></g>
<g><path style="opacity:0.008" fill="#f2f3f2" d="M 120.5,102.5 C 121.833,103.167 121.833,103.167 120.5,102.5 Z"/></g>
<g><path style="opacity:0.012" fill="#f2f3f2" d="M 152.5,102.5 C 153.833,103.167 153.833,103.167 152.5,102.5 Z"/></g>
<g><path style="opacity:0.384" fill="#a8a8a8" d="M 173.5,104.5 C 173.167,104.5 172.833,104.5 172.5,104.5C 171.081,103.549 169.415,103.216 167.5,103.5C 167.783,102.711 168.283,102.044 169,101.5C 171.026,101.915 172.526,102.915 173.5,104.5 Z"/></g>
<g><path style="opacity:1" fill="#c11f51" d="M 43.5,110.5 C 42.5275,112.139 41.1942,113.473 39.5,114.5C 40.8914,112.208 41.8914,109.708 42.5,107C 42.3333,106.167 42.1667,105.333 42,104.5C 40.9609,105.71 39.7942,106.71 38.5,107.5C 38.5,106.833 38.5,106.167 38.5,105.5C 39.8149,104.524 41.1482,103.524 42.5,102.5C 43.48,105.086 43.8134,107.753 43.5,110.5 Z"/></g>
<g><path style="opacity:0.008" fill="#f1f2f1" d="M 195.5,103.5 C 196.833,104.167 196.833,104.167 195.5,103.5 Z"/></g>
<g><path style="opacity:0.773" fill="#e6a1bc" d="M 43.5,110.5 C 43.8134,107.753 43.48,105.086 42.5,102.5C 41.1482,103.524 39.8149,104.524 38.5,105.5C 40.7471,99.3406 43.0805,99.174 45.5,105C 45.0463,107.03 44.3796,108.863 43.5,110.5 Z"/></g>
<g><path style="opacity:0.075" fill="#e3e4e3" d="M 121.5,104.5 C 122.833,105.167 122.833,105.167 121.5,104.5 Z"/></g>
<g><path style="opacity:0.047" fill="#e9eae9" d="M 173.5,104.5 C 174.167,104.5 174.5,104.833 174.5,105.5C 174.167,105.167 173.833,104.833 173.5,104.5 Z"/></g>
<g><path style="opacity:1" fill="#2f2f2f" d="M 178.5,98.5 C 180.122,99.1224 181.455,100.122 182.5,101.5C 182.433,102.959 182.766,104.292 183.5,105.5C 182.527,106.791 181.527,106.791 180.5,105.5C 179.478,105.855 178.811,106.522 178.5,107.5C 175.833,104.5 175.833,101.5 178.5,98.5 Z"/></g>
<g><path style="opacity:1" fill="#2c2c2c" d="M 173.5,99.5 C 169.366,100.485 165.032,100.818 160.5,100.5C 160.5,101.5 160.5,102.5 160.5,103.5C 160.973,104.906 161.973,105.573 163.5,105.5C 164.833,104.833 166.167,104.167 167.5,103.5C 169.415,103.216 171.081,103.549 172.5,104.5C 172.573,106.027 171.906,107.027 170.5,107.5C 169.508,107.328 168.842,107.662 168.5,108.5C 162.491,110.896 158.158,109.23 155.5,103.5C 156.708,102.766 158.041,102.433 159.5,102.5C 159.5,101.5 159.5,100.5 159.5,99.5C 164.167,99.5 168.833,99.5 173.5,99.5 Z"/></g>
<g><path style="opacity:0.008" fill="#bebebe" d="M 160.5,103.5 C 162.027,103.427 163.027,104.094 163.5,105.5C 161.973,105.573 160.973,104.906 160.5,103.5 Z"/></g>
<g><path style="opacity:0.016" fill="#f0f1f0" d="M 174.5,105.5 C 175.833,106.167 175.833,106.167 174.5,105.5 Z"/></g>
<g><path style="opacity:0.475" fill="#ecb9ce" d="M 17.5,103.5 C 17.5,103.833 17.5,104.167 17.5,104.5C 15.744,105.552 15.0773,107.219 15.5,109.5C 14.5386,107.735 14.2053,105.735 14.5,103.5C 15.5,103.5 16.5,103.5 17.5,103.5 Z"/></g>
<g><path style="opacity:1" fill="#d24e75" d="M 17.5,104.5 C 17.8333,104.5 18.1667,104.5 18.5,104.5C 19.1667,104.5 19.5,104.833 19.5,105.5C 19.5,105.833 19.5,106.167 19.5,106.5C 19.8417,107.338 20.5084,107.672 21.5,107.5C 21.5,107.833 21.5,108.167 21.5,108.5C 19.6096,108.703 18.1096,108.037 17,106.5C 16.8333,107.333 16.6667,108.167 16.5,109C 16.6842,110.376 17.3509,111.209 18.5,111.5C 18.1667,112.167 17.8333,112.833 17.5,113.5C 15.8958,112.713 15.2291,111.38 15.5,109.5C 15.0773,107.219 15.744,105.552 17.5,104.5 Z"/></g>
<g><path style="opacity:1" fill="#212121" d="M 70.5,103.5 C 71.8333,103.5 73.1667,103.5 74.5,103.5C 76.5,104.167 78.5,104.833 80.5,105.5C 80.3893,106.117 80.056,106.617 79.5,107C 81.0581,107.21 82.3915,107.71 83.5,108.5C 80.8333,108.5 78.1667,108.5 75.5,108.5C 74.8333,108.5 74.1667,108.5 73.5,108.5C 71.31,107.626 70.31,105.959 70.5,103.5 Z"/></g>
<g><path style="opacity:1" fill="#2e2e2e" d="M 91.5,95.5 C 91.4158,98.7485 92.2492,101.748 94,104.5C 95.417,103.922 96.2504,102.922 96.5,101.5C 97.4013,102.29 98.0679,103.29 98.5,104.5C 99.8333,105.833 101.167,105.833 102.5,104.5C 102.833,104.5 103.167,104.5 103.5,104.5C 105.797,107.215 107.13,106.548 107.5,102.5C 108.183,102.863 108.85,103.196 109.5,103.5C 108.833,106.167 107.167,107.833 104.5,108.5C 101.833,108.5 99.1667,108.5 96.5,108.5C 92.2257,106.921 90.2257,103.755 90.5,99C 90.5143,97.6153 90.8476,96.4486 91.5,95.5 Z"/></g>
<g><path style="opacity:0.247" fill="#bbbbbb" d="M 102.5,104.5 C 101.167,105.833 99.8333,105.833 98.5,104.5C 99.2216,104.082 99.7216,103.416 100,102.5C 100.417,103.756 101.25,104.423 102.5,104.5 Z"/></g>
<g><path style="opacity:1" fill="#3a3a3a" d="M 123.5,94.5 C 123.5,97.1667 123.5,99.8333 123.5,102.5C 124.833,102.5 126.167,102.5 127.5,102.5C 127.198,99.9407 127.532,97.6074 128.5,95.5C 128.337,97.8568 128.503,100.19 129,102.5C 130.444,104.155 132.278,104.822 134.5,104.5C 132.703,105.393 131.37,106.726 130.5,108.5C 129.833,108.5 129.167,108.5 128.5,108.5C 125.909,107.746 124.076,106.079 123,103.5C 122.195,100.304 122.362,97.3035 123.5,94.5 Z"/></g>
<g><path style="opacity:0.035" fill="#e8e9e8" d="M 140.5,106.5 C 141.833,107.167 141.833,107.167 140.5,106.5 Z"/></g>
<g><path style="opacity:0.047" fill="#e0e1e0" d="M 91.5,107.5 C 92.8333,108.167 92.8333,108.167 91.5,107.5 Z"/></g>
<g><path style="opacity:0.024" fill="#c8c8c8" d="M 139.5,106.5 C 139.5,107.833 138.833,108.5 137.5,108.5C 137.833,107.5 138.5,106.833 139.5,106.5 Z"/></g>
<g><path style="opacity:0.02" fill="#d5d5d5" d="M 170.5,107.5 C 169.994,109.105 169.327,109.439 168.5,108.5C 168.842,107.662 169.508,107.328 170.5,107.5 Z"/></g>
<g><path style="opacity:0.02" fill="#ecedec" d="M 193.5,107.5 C 194.833,108.167 194.833,108.167 193.5,107.5 Z"/></g>
<g><path style="opacity:0.027" fill="#ecedec" d="M 73.5,108.5 C 72.8333,109.167 72.8333,109.167 73.5,108.5 Z"/></g>
<g><path style="opacity:0.529" fill="#a5a5a5" d="M 75.5,108.5 C 78.1667,108.5 80.8333,108.5 83.5,108.5C 81.4437,109.216 79.277,109.883 77,110.5C 76.2828,109.956 75.7828,109.289 75.5,108.5 Z"/></g>
<g><path style="opacity:0.588" fill="#ababab" d="M 96.5,108.5 C 99.1667,108.5 101.833,108.5 104.5,108.5C 104.5,108.833 104.5,109.167 104.5,109.5C 102.239,110.409 100.072,110.742 98,110.5C 97.2828,109.956 96.7828,109.289 96.5,108.5 Z"/></g>
<g><path style="opacity:0.02" fill="#e6e7e6" d="M 120.5,108.5 C 121.833,109.167 121.833,109.167 120.5,108.5 Z"/></g>
<g><path style="opacity:0.608" fill="#b6b6b6" d="M 128.5,108.5 C 129.167,108.5 129.833,108.5 130.5,108.5C 132.5,108.5 134.5,108.5 136.5,108.5C 135.71,109.401 134.71,110.068 133.5,110.5C 131.978,110.21 130.478,110.21 129,110.5C 128.536,109.906 128.369,109.239 128.5,108.5 Z"/></g>
<g><path style="opacity:0.525" fill="#9c9c9c" d="M 180.5,108.5 C 184.167,108.5 187.833,108.5 191.5,108.5C 187.969,109.23 184.303,109.896 180.5,110.5C 179.537,110.03 179.537,109.363 180.5,108.5 Z"/></g>
<g><path style="opacity:1" fill="#e15785" d="M 38.5,105.5 C 38.5,106.167 38.5,106.833 38.5,107.5C 34.5343,110.524 30.201,111.191 25.5,109.5C 26.5,109.5 27.5,109.5 28.5,109.5C 28.8333,109.5 29.1667,109.5 29.5,109.5C 31.099,109.768 32.4324,109.434 33.5,108.5C 34.9649,107.263 36.6316,106.263 38.5,105.5 Z"/></g>
<g><path style="opacity:0.031" fill="#eaebea" d="M 104.5,109.5 C 105.833,110.167 105.833,110.167 104.5,109.5 Z"/></g>
<g><path style="opacity:0.071" fill="#dfe0df" d="M 192.5,109.5 C 193.833,110.167 193.833,110.167 192.5,109.5 Z"/></g>
<g><path style="opacity:1" fill="#e9135c" d="M 39.5,114.5 C 39.5,115.167 39.1667,115.5 38.5,115.5C 38.1667,115.5 37.8333,115.5 37.5,115.5C 37.9059,113.891 37.9059,112.557 37.5,111.5C 33.9043,112.236 30.0709,112.57 26,112.5C 23.7289,111.729 21.5622,110.729 19.5,109.5C 17.279,109.439 16.9456,110.105 18.5,111.5C 17.3509,111.209 16.6842,110.376 16.5,109C 16.6667,108.167 16.8333,107.333 17,106.5C 18.1096,108.037 19.6096,108.703 21.5,108.5C 22.7079,109.234 24.0413,109.567 25.5,109.5C 30.201,111.191 34.5343,110.524 38.5,107.5C 39.7942,106.71 40.9609,105.71 42,104.5C 42.1667,105.333 42.3333,106.167 42.5,107C 41.8914,109.708 40.8914,112.208 39.5,114.5 Z"/></g>
<g><path style="opacity:0.024" fill="#ebeceb" d="M 133.5,110.5 C 132.833,111.167 132.833,111.167 133.5,110.5 Z"/></g>
<g><path style="opacity:0.016" fill="#ecedec" d="M 212.5,110.5 C 213.833,111.167 213.833,111.167 212.5,110.5 Z"/></g>
<g><path style="opacity:0.025" fill="#ffd0f3" d="M 43.5,110.5 C 43.5,111.5 43.5,112.5 43.5,113.5C 42.8333,113.5 42.5,113.833 42.5,114.5C 41.3951,115.6 40.0618,116.267 38.5,116.5C 38.5,116.167 38.5,115.833 38.5,115.5C 39.1667,115.5 39.5,115.167 39.5,114.5C 41.1942,113.473 42.5275,112.139 43.5,110.5 Z"/></g>
<g><path style="opacity:0.992" fill="#7e6798" d="M 45.5,100.5 C 46.1174,100.611 46.6174,100.944 47,101.5C 47.4988,105.486 47.6655,109.486 47.5,113.5C 46.5,113.5 45.5,113.5 44.5,113.5C 46.485,109.269 46.8183,104.936 45.5,100.5 Z"/></g>
<g><path style="opacity:0.02" fill="#ffc0dd" d="M 17.5,113.5 C 19.1667,114.5 20.5,115.833 21.5,117.5C 19.1667,117.167 17.8333,115.833 17.5,113.5 Z"/></g>
<g><path style="opacity:1" fill="#fa095a" d="M 37.5,115.5 C 32.3254,115.168 26.9921,115.168 21.5,115.5C 21.5323,113.381 20.5323,112.048 18.5,111.5C 16.9456,110.105 17.279,109.439 19.5,109.5C 21.5622,110.729 23.7289,111.729 26,112.5C 30.0709,112.57 33.9043,112.236 37.5,111.5C 37.9059,112.557 37.9059,113.891 37.5,115.5 Z"/></g>
<g><path style="opacity:1" fill="#e61d59" d="M 18.5,111.5 C 20.5323,112.048 21.5323,113.381 21.5,115.5C 26.9921,115.168 32.3254,115.168 37.5,115.5C 37.8333,115.5 38.1667,115.5 38.5,115.5C 38.5,115.833 38.5,116.167 38.5,116.5C 37.7095,117.401 36.7095,118.068 35.5,118.5C 30.7971,118.563 26.1304,118.229 21.5,117.5C 20.5,115.833 19.1667,114.5 17.5,113.5C 17.8333,112.833 18.1667,112.167 18.5,111.5 Z"/></g>
<g><path style="opacity:0.992" fill="#7c6b9b" d="M 54.5,98.5 C 58.0921,106.566 56.0921,113.066 48.5,118C 46.3225,119.202 43.9892,119.702 41.5,119.5C 41.6287,117.784 41.962,116.117 42.5,114.5C 43.1667,114.5 43.5,114.167 43.5,113.5C 43.8333,113.5 44.1667,113.5 44.5,113.5C 44.5,114.5 44.5,115.5 44.5,116.5C 48.3491,116.981 50.3491,115.314 50.5,111.5C 51.5,111.5 52.5,111.5 53.5,111.5C 54.2949,107.215 54.6282,102.881 54.5,98.5 Z"/></g>
<g><path style="opacity:0.016" fill="#efe8f6" d="M 50.5,117.5 C 51.8333,118.167 51.8333,118.167 50.5,117.5 Z"/></g>
<g><path style="opacity:0.847" fill="#f295b4" d="M 21.5,117.5 C 26.1304,118.229 30.7971,118.563 35.5,118.5C 30.5836,121.368 25.917,121.035 21.5,117.5 Z"/></g>
</svg>
