<?xml version="1.0" encoding="UTF-8"?>
<!DOCTYPE svg PUBLIC "-//W3C//DTD SVG 1.1//EN" "http://www.w3.org/Graphics/SVG/1.1/DTD/svg11.dtd">
<svg xmlns="http://www.w3.org/2000/svg" version="1.1" width="184px" height="198px" style="shape-rendering:geometricPrecision; text-rendering:geometricPrecision; image-rendering:optimizeQuality; fill-rule:evenodd; clip-rule:evenodd" xmlns:xlink="http://www.w3.org/1999/xlink">
<g><path style="opacity:0.129" fill="#c2e7ef" d="M 142.5,3.5 C 144.819,3.99249 146.819,4.99249 148.5,6.5C 145.911,6.53905 143.911,5.53905 142.5,3.5 Z"/></g>
<g><path style="opacity:0.286" fill="#97c0ce" d="M 130.5,4.5 C 129.738,6.26242 128.404,7.26242 126.5,7.5C 127.262,5.73758 128.596,4.73758 130.5,4.5 Z"/></g>
<g><path style="opacity:0.843" fill="#a4cae0" d="M 154.5,9.5 C 157.744,10.4629 160.744,11.7962 163.5,13.5C 159.686,13.6338 156.686,12.3005 154.5,9.5 Z"/></g>
<g><path style="opacity:1" fill="#569dcb" d="M 132.5,3.5 C 135.731,2.21846 139.064,2.21846 142.5,3.5C 143.911,5.53905 145.911,6.53905 148.5,6.5C 150.819,6.99249 152.819,7.99249 154.5,9.5C 156.686,12.3005 159.686,13.6338 163.5,13.5C 165.819,13.9925 167.819,14.9925 169.5,16.5C 169.5,16.8333 169.5,17.1667 169.5,17.5C 168.883,17.6107 168.383,17.944 168,18.5C 161.602,13.5534 154.436,12.0534 146.5,14C 146.833,14.3333 147.167,14.6667 147.5,15C 145.343,15.0781 143.343,15.2448 141.5,15.5C 140.369,13.9255 140.202,12.2588 141,10.5C 143.135,12.2785 145.635,12.9452 148.5,12.5C 148.714,10.8561 148.38,9.35613 147.5,8C 144.311,7.158 141.311,5.82466 138.5,4C 136.527,3.50454 134.527,3.33788 132.5,3.5 Z"/></g>
<g><path style="opacity:1" fill="#3b97d2" d="M 130.5,4.5 C 130.842,3.66175 131.508,3.32842 132.5,3.5C 134.527,3.33788 136.527,3.50454 138.5,4C 141.311,5.82466 144.311,7.158 147.5,8C 148.38,9.35613 148.714,10.8561 148.5,12.5C 145.635,12.9452 143.135,12.2785 141,10.5C 140.202,12.2588 140.369,13.9255 141.5,15.5C 143.343,15.2448 145.343,15.0781 147.5,15C 147.167,14.6667 146.833,14.3333 146.5,14C 154.436,12.0534 161.602,13.5534 168,18.5C 168.383,17.944 168.883,17.6107 169.5,17.5C 171.297,18.7298 173.297,19.3964 175.5,19.5C 175.5,20.5 175.5,21.5 175.5,22.5C 178.127,23.0916 180.794,23.4249 183.5,23.5C 183.5,72.8333 183.5,122.167 183.5,171.5C 168.089,177.804 153.089,184.97 138.5,193C 137.207,193.49 135.873,193.657 134.5,193.5C 134.389,192.883 134.056,192.383 133.5,192C 136.057,191.315 137.891,189.815 139,187.5C 139.816,172.092 139.649,156.759 138.5,141.5C 139.833,127.349 140.499,112.849 140.5,98C 140.5,83.3294 140.167,68.8294 139.5,54.5C 139.5,54.1667 139.5,53.8333 139.5,53.5C 139.667,38.163 139.5,22.8297 139,7.5C 137.934,5.90054 136.434,4.90054 134.5,4.5C 133.274,5.36288 131.94,5.36288 130.5,4.5 Z"/></g>
<g><path style="opacity:0.106" fill="#ccecf6" d="M 169.5,17.5 C 169.5,17.1667 169.5,16.8333 169.5,16.5C 171.819,16.9925 173.819,17.9925 175.5,19.5C 173.297,19.3964 171.297,18.7298 169.5,17.5 Z"/></g>
<g><path style="opacity:0.506" fill="#94c1d5" d="M 124.5,9.5 C 121.437,13.5658 117.771,16.8991 113.5,19.5C 116.563,15.4342 120.229,12.1009 124.5,9.5 Z"/></g>
<g><path style="opacity:0.09" fill="#cbf9ff" d="M 113.5,19.5 C 113.167,20.5 112.5,21.1667 111.5,21.5C 111.5,20.1667 112.167,19.5 113.5,19.5 Z"/></g>
<g><path style="opacity:0.616" fill="#88b8d1" d="M 175.5,19.5 C 178.167,20.5 180.833,21.5 183.5,22.5C 183.5,22.8333 183.5,23.1667 183.5,23.5C 180.794,23.4249 178.127,23.0916 175.5,22.5C 175.5,21.5 175.5,20.5 175.5,19.5 Z"/></g>
<g><path style="opacity:1" fill="#0875b7" d="M 130.5,4.5 C 131.94,5.36288 133.274,5.36288 134.5,4.5C 136.434,4.90054 137.934,5.90054 139,7.5C 139.5,22.8297 139.667,38.163 139.5,53.5C 136.162,55.3304 134.496,54.3304 134.5,50.5C 133.167,50.5 131.833,50.5 130.5,50.5C 130.5,51.8333 130.5,53.1667 130.5,54.5C 131.5,54.5 132.5,54.5 133.5,54.5C 133.5,55.8333 133.5,57.1667 133.5,58.5C 131.5,58.5 129.5,58.5 127.5,58.5C 127.5,60.1667 127.5,61.8333 127.5,63.5C 125.278,63.822 123.444,63.1554 122,61.5C 121.506,63.1341 121.34,64.8008 121.5,66.5C 119.5,66.5 117.5,66.5 115.5,66.5C 115.579,67.9305 115.246,69.2638 114.5,70.5C 112.439,73.1525 109.772,74.9858 106.5,76C 105.663,77.0113 105.33,78.1779 105.5,79.5C 101.554,79.4877 99.8874,81.4877 100.5,85.5C 99.8333,85.8333 99.1667,86.1667 98.5,86.5C 96.8632,85.7822 95.1966,85.6155 93.5,86C 94.4581,87.1475 94.1247,88.1475 92.5,89C 91.062,89.2189 89.7287,89.7189 88.5,90.5C 86.7115,93.2999 84.3782,95.2999 81.5,96.5C 71.4176,90.3958 62.4176,83.7291 54.5,76.5C 54.5,75.8333 54.1667,75.5 53.5,75.5C 53.8333,74.8333 54.1667,74.1667 54.5,73.5C 58.7706,70.8991 62.4372,67.5658 65.5,63.5C 65.8333,62.5 66.5,61.8333 67.5,61.5C 71.0148,58.8257 74.6815,56.3257 78.5,54C 82.8518,53.5811 83.1851,52.9145 79.5,52C 80.2524,51.3292 80.5858,50.4959 80.5,49.5C 83.4274,48.2427 85.7607,46.2427 87.5,43.5C 88.1667,42.1667 89.1667,41.1667 90.5,40.5C 94.1002,38.5698 97.1002,35.9031 99.5,32.5C 100.167,31.1667 101.167,30.1667 102.5,29.5C 106.1,27.5698 109.1,24.9031 111.5,21.5C 112.5,21.1667 113.167,20.5 113.5,19.5C 117.771,16.8991 121.437,13.5658 124.5,9.5C 124.833,8.5 125.5,7.83333 126.5,7.5C 128.404,7.26242 129.738,6.26242 130.5,4.5 Z"/></g>
<g><path style="opacity:0.459" fill="#8ebbd0" d="M 111.5,21.5 C 109.1,24.9031 106.1,27.5698 102.5,29.5C 104.9,26.0969 107.9,23.4302 111.5,21.5 Z"/></g>
<g><path style="opacity:0.227" fill="#97b8d1" d="M 99.5,32.5 C 97.1002,35.9031 94.1002,38.5698 90.5,40.5C 92.8998,37.0969 95.8998,34.4302 99.5,32.5 Z"/></g>
<g><path style="opacity:0.008" fill="#d8f5fc" d="M 16.5,48.5 C 16.5,48.1667 16.5,47.8333 16.5,47.5C 18.0269,47.427 19.0269,48.0937 19.5,49.5C 18.391,49.4431 17.391,49.1098 16.5,48.5 Z"/></g>
<g><path style="opacity:0.298" fill="#8fbcd2" d="M 87.5,43.5 C 85.7607,46.2427 83.4274,48.2427 80.5,49.5C 82.2393,46.7573 84.5726,44.7573 87.5,43.5 Z"/></g>
<g><path style="opacity:0.012" fill="#c2e5f3" d="M 19.5,49.5 C 21.2303,50.0256 22.5637,51.0256 23.5,52.5C 21.368,52.4456 20.0347,51.4456 19.5,49.5 Z"/></g>
<g><path style="opacity:1" fill="#548fb6" d="M 80.5,49.5 C 80.5858,50.4959 80.2524,51.3292 79.5,52C 83.1851,52.9145 82.8518,53.5811 78.5,54C 74.6815,56.3257 71.0148,58.8257 67.5,61.5C 71.6019,57.2766 75.9352,53.2766 80.5,49.5 Z"/></g>
<g><path style="opacity:0.933" fill="#5893be" d="M 16.5,47.5 C 16.5,47.8333 16.5,48.1667 16.5,48.5C 15.448,48.3505 14.448,48.5172 13.5,49C 9.34768,53.5604 4.68101,57.3938 -0.5,60.5C -0.5,59.8333 -0.5,59.1667 -0.5,58.5C 2.96414,55.5375 6.29747,52.3709 9.5,49C 11.6775,47.7978 14.0108,47.2978 16.5,47.5 Z"/></g>
<g><path style="opacity:1" fill="#2387c9" d="M 16.5,48.5 C 17.391,49.1098 18.391,49.4431 19.5,49.5C 20.0347,51.4456 21.368,52.4456 23.5,52.5C 24.2354,55.0615 25.5687,57.2282 27.5,59C 26.2927,60.3002 25.6261,61.8002 25.5,63.5C 27.1439,63.7135 28.6439,63.3802 30,62.5C 33.8932,64.054 37.5599,66.054 41,68.5C 41.49,69.7932 41.6567,71.1266 41.5,72.5C 37.8284,72.1826 36.1617,73.8493 36.5,77.5C 40.2407,78.4015 42.2407,77.0681 42.5,73.5C 46.1119,75.432 50.1119,76.432 54.5,76.5C 62.4176,83.7291 71.4176,90.3958 81.5,96.5C 80.8349,100.118 82.5016,102.451 86.5,103.5C 90.4141,106.624 94.7474,108.957 99.5,110.5C 100.167,110.5 100.5,110.833 100.5,111.5C 99.475,111.897 99.3083,112.563 100,113.5C 101.828,115.081 103.828,116.415 106,117.5C 106.483,118.448 106.649,119.448 106.5,120.5C 104.692,120.491 103.025,120.991 101.5,122C 100.167,122.667 100.167,123.333 101.5,124C 103.791,124.015 105.958,124.182 108,124.5C 108.308,123.692 108.808,123.025 109.5,122.5C 113.915,124.749 117.915,127.582 121.5,131C 121.167,131.333 120.833,131.667 120.5,132C 123.168,132.567 125.834,133.067 128.5,133.5C 128.5,134.5 128.5,135.5 128.5,136.5C 131.18,137.997 133.846,138.664 136.5,138.5C 137.167,139.5 137.833,140.5 138.5,141.5C 139.649,156.759 139.816,172.092 139,187.5C 137.891,189.815 136.057,191.315 133.5,192C 134.056,192.383 134.389,192.883 134.5,193.5C 133.833,193.5 133.167,193.5 132.5,193.5C 131.415,191.413 129.749,190.08 127.5,189.5C 125.833,188.5 124.5,187.167 123.5,185.5C 121.1,182.097 118.1,179.43 114.5,177.5C 113.5,177.167 112.833,176.5 112.5,175.5C 110.761,172.757 108.427,170.757 105.5,169.5C 105.019,166.545 103.519,164.211 101,162.5C 100.51,161.207 100.343,159.873 100.5,158.5C 94.2245,157.886 90.5578,154.553 89.5,148.5C 87.1727,148.753 85.1727,148.086 83.5,146.5C 84.5,145.833 85.5,145.167 86.5,144.5C 84.6351,143.334 82.9684,143.667 81.5,145.5C 80.5832,144.873 79.5832,144.539 78.5,144.5C 76.7607,141.757 74.4274,139.757 71.5,138.5C 69.8333,137.5 68.5,136.167 67.5,134.5C 67.7135,132.856 67.3802,131.356 66.5,130C 62.0323,127.989 58.0323,125.489 54.5,122.5C 53.1667,122.5 51.8333,122.5 50.5,122.5C 51.3029,121.577 51.4696,120.577 51,119.5C 43.3637,112.507 35.5303,105.84 27.5,99.5C 27.6633,97.1432 27.4966,94.8098 27,92.5C 25.6012,91.7734 24.1012,91.2734 22.5,91C 21.8333,89.6667 21.1667,88.3333 20.5,87C 17.4038,86.5323 14.7372,85.3656 12.5,83.5C 11.8333,83.5 11.5,83.1667 11.5,82.5C 11.5,81.5 11.5,80.5 11.5,79.5C 7.47091,79.9427 5.47091,78.1094 5.5,74C 3.5273,73.5045 1.5273,73.3379 -0.5,73.5C -0.5,69.1667 -0.5,64.8333 -0.5,60.5C 4.68101,57.3938 9.34768,53.5604 13.5,49C 14.448,48.5172 15.448,48.3505 16.5,48.5 Z"/></g>
<g><path style="opacity:0.012" fill="#bfe7f6" d="M 29.5,57.5 C 31.0269,57.427 32.0269,58.0937 32.5,59.5C 30.9731,59.573 29.9731,58.9063 29.5,57.5 Z"/></g>
<g><path style="opacity:0.475" fill="#a2cee3" d="M 32.5,59.5 C 34.2303,60.0256 35.5637,61.0256 36.5,62.5C 34.368,62.4456 33.0347,61.4456 32.5,59.5 Z"/></g>
<g><path style="opacity:1" fill="#377aac" d="M 139.5,53.5 C 139.5,53.8333 139.5,54.1667 139.5,54.5C 138.5,55.5 137.5,56.5 136.5,57.5C 124.539,66.8221 112.539,76.1555 100.5,85.5C 99.8874,81.4877 101.554,79.4877 105.5,79.5C 105.33,78.1779 105.663,77.0113 106.5,76C 109.772,74.9858 112.439,73.1525 114.5,70.5C 115.246,69.2638 115.579,67.9305 115.5,66.5C 117.5,66.5 119.5,66.5 121.5,66.5C 121.34,64.8008 121.506,63.1341 122,61.5C 123.444,63.1554 125.278,63.822 127.5,63.5C 127.5,61.8333 127.5,60.1667 127.5,58.5C 129.5,58.5 131.5,58.5 133.5,58.5C 133.5,57.1667 133.5,55.8333 133.5,54.5C 132.5,54.5 131.5,54.5 130.5,54.5C 130.5,53.1667 130.5,51.8333 130.5,50.5C 131.833,50.5 133.167,50.5 134.5,50.5C 134.496,54.3304 136.162,55.3304 139.5,53.5 Z"/></g>
<g><path style="opacity:0.223" fill="#98cdea" d="M 139.5,54.5 C 140.167,68.8294 140.5,83.3294 140.5,98C 140.499,112.849 139.833,127.349 138.5,141.5C 137.833,140.5 137.167,139.5 136.5,138.5C 137.496,138.414 138.329,138.748 139,139.5C 139.667,112.5 139.667,85.5 139,58.5C 138.329,57.7476 137.496,57.4142 136.5,57.5C 137.5,56.5 138.5,55.5 139.5,54.5 Z"/></g>
<g><path style="opacity:1" fill="#3689bf" d="M 23.5,52.5 C 25.9095,53.7007 27.9095,55.3674 29.5,57.5C 29.9731,58.9063 30.9731,59.573 32.5,59.5C 33.0347,61.4456 34.368,62.4456 36.5,62.5C 41.2056,66.1777 45.8723,69.8444 50.5,73.5C 50.9731,74.9063 51.9731,75.573 53.5,75.5C 54.1667,75.5 54.5,75.8333 54.5,76.5C 50.1119,76.432 46.1119,75.432 42.5,73.5C 42.2407,77.0681 40.2407,78.4015 36.5,77.5C 36.1617,73.8493 37.8284,72.1826 41.5,72.5C 41.6567,71.1266 41.49,69.7932 41,68.5C 37.5599,66.054 33.8932,64.054 30,62.5C 28.6439,63.3802 27.1439,63.7135 25.5,63.5C 25.6261,61.8002 26.2927,60.3002 27.5,59C 25.5687,57.2282 24.2354,55.0615 23.5,52.5 Z"/></g>
<g><path style="opacity:0.424" fill="#76a6bf" d="M 65.5,63.5 C 62.4372,67.5658 58.7706,70.8991 54.5,73.5C 57.5628,69.4342 61.2294,66.1009 65.5,63.5 Z"/></g>
<g><path style="opacity:1" fill="#5592bc" d="M -0.5,74.5 C -0.5,74.1667 -0.5,73.8333 -0.5,73.5C 1.5273,73.3379 3.5273,73.5045 5.5,74C 5.47091,78.1094 7.47091,79.9427 11.5,79.5C 11.5,80.5 11.5,81.5 11.5,82.5C 10.3951,81.3995 9.06181,80.7329 7.5,80.5C 5.09759,78.0908 2.43092,76.0908 -0.5,74.5 Z"/></g>
<g><path style="opacity:0.01" fill="#b4e6f3" d="M 50.5,73.5 C 51.8333,73.5 53.1667,73.5 54.5,73.5C 54.1667,74.1667 53.8333,74.8333 53.5,75.5C 51.9731,75.573 50.9731,74.9063 50.5,73.5 Z"/></g>
<g><path style="opacity:0.286" fill="#afd7e9" d="M 7.5,80.5 C 9.06181,80.7329 10.3951,81.3995 11.5,82.5C 11.5,83.1667 11.8333,83.5 12.5,83.5C 12.8333,84.1667 13.1667,84.8333 13.5,85.5C 10.9108,84.5806 8.91083,82.914 7.5,80.5 Z"/></g>
<g><path style="opacity:1" fill="#498cb6" d="M 12.5,83.5 C 14.7372,85.3656 17.4038,86.5323 20.5,87C 21.1667,88.3333 21.8333,89.6667 22.5,91C 24.1012,91.2734 25.6012,91.7734 27,92.5C 27.4966,94.8098 27.6633,97.1432 27.5,99.5C 26.8333,99.5 26.5,99.8333 26.5,100.5C 25.8333,100.5 25.1667,100.5 24.5,100.5C 24.9528,99.5416 25.6195,98.7083 26.5,98C 22.0919,93.8175 17.7586,89.6509 13.5,85.5C 13.1667,84.8333 12.8333,84.1667 12.5,83.5 Z"/></g>
<g><path style="opacity:0.957" fill="#3e7ead" d="M 98.5,86.5 C 93.8723,90.1556 89.2056,93.8223 84.5,97.5C 83.2848,98.779 83.6182,99.779 85.5,100.5C 85.5569,101.609 85.8902,102.609 86.5,103.5C 82.5016,102.451 80.8349,100.118 81.5,96.5C 84.3782,95.2999 86.7115,93.2999 88.5,90.5C 89.7287,89.7189 91.062,89.2189 92.5,89C 94.1247,88.1475 94.4581,87.1475 93.5,86C 95.1966,85.6155 96.8632,85.7822 98.5,86.5 Z"/></g>
<g><path style="opacity:0.133" fill="#b8e3f8" d="M 84.5,97.5 C 85.1667,98.5 85.8333,99.5 86.5,100.5C 86.1667,100.5 85.8333,100.5 85.5,100.5C 83.6182,99.779 83.2848,98.779 84.5,97.5 Z"/></g>
<g><path style="opacity:0.004" fill="#bde7f6" d="M 87.5,101.5 C 89.0269,101.427 90.0269,102.094 90.5,103.5C 88.9731,103.573 87.9731,102.906 87.5,101.5 Z"/></g>
<g><path style="opacity:1" fill="#126eb2" d="M 27.5,99.5 C 35.5303,105.84 43.3637,112.507 51,119.5C 51.4696,120.577 51.3029,121.577 50.5,122.5C 48.4205,123.044 46.4205,123.878 44.5,125C 43.6634,126.011 43.33,127.178 43.5,128.5C 43.1583,129.338 42.4916,129.672 41.5,129.5C 39.4086,129.318 37.4086,129.652 35.5,130.5C 33.5888,134.649 30.5888,136.149 26.5,135C 29.9152,137.072 29.9152,138.239 26.5,138.5C 26.5,139.5 26.5,140.5 26.5,141.5C 25.391,141.557 24.391,141.89 23.5,142.5C 22.448,142.351 21.448,142.517 20.5,143C 20.8333,143.333 21.1667,143.667 21.5,144C 19.867,144.48 18.5336,145.313 17.5,146.5C 15.8008,146.66 14.1341,146.494 12.5,146C 11.6667,144.5 10.5,143.333 9,142.5C 8.64011,140.392 7.97345,138.392 7,136.5C 6.4387,137.022 5.77203,137.355 5,137.5C 3.19971,136.68 1.36637,136.014 -0.5,135.5C -0.5,131.167 -0.5,126.833 -0.5,122.5C -0.166667,122.5 0.166667,122.5 0.5,122.5C 3.89605,121.405 6.89605,119.572 9.5,117C 11.1341,116.506 12.8008,116.34 14.5,116.5C 14.5,114.833 14.5,113.167 14.5,111.5C 16.2624,111.643 17.9291,111.309 19.5,110.5C 21.8586,107.149 24.1919,103.815 26.5,100.5C 26.5,99.8333 26.8333,99.5 27.5,99.5 Z"/></g>
<g><path style="opacity:0.827" fill="#5698bc" d="M 85.5,100.5 C 85.8333,100.5 86.1667,100.5 86.5,100.5C 87.1667,100.5 87.5,100.833 87.5,101.5C 87.9731,102.906 88.9731,103.573 90.5,103.5C 93.8103,105.482 96.8103,107.815 99.5,110.5C 94.7474,108.957 90.4141,106.624 86.5,103.5C 85.8902,102.609 85.5569,101.609 85.5,100.5 Z"/></g>
<g><path style="opacity:0.337" fill="#7da9c6" d="M 20.5,104.5 C 19.0892,106.914 17.0892,108.581 14.5,109.5C 15.9108,107.086 17.9108,105.419 20.5,104.5 Z"/></g>
<g><path style="opacity:0.243" fill="#9bc0d5" d="M 12.5,111.5 C 10.7607,114.243 8.42735,116.243 5.5,117.5C 7.23931,114.757 9.57265,112.757 12.5,111.5 Z"/></g>
<g><path style="opacity:1" fill="#2c6fa5" d="M 24.5,100.5 C 25.1667,100.5 25.8333,100.5 26.5,100.5C 24.1919,103.815 21.8586,107.149 19.5,110.5C 17.9291,111.309 16.2624,111.643 14.5,111.5C 14.5,113.167 14.5,114.833 14.5,116.5C 12.8008,116.34 11.1341,116.506 9.5,117C 6.89605,119.572 3.89605,121.405 0.5,122.5C 1.83333,120.5 3.5,118.833 5.5,117.5C 8.42735,116.243 10.7607,114.243 12.5,111.5C 12.8333,110.5 13.5,109.833 14.5,109.5C 17.0892,108.581 19.0892,106.914 20.5,104.5C 21.5,102.833 22.8333,101.5 24.5,100.5 Z"/></g>
<g><path style="opacity:0.584" fill="#648fb6" d="M 50.5,122.5 C 48.3932,124.727 46.0599,126.727 43.5,128.5C 43.33,127.178 43.6634,126.011 44.5,125C 46.4205,123.878 48.4205,123.044 50.5,122.5 Z"/></g>
<g><path style="opacity:0.927" fill="#528fb8" d="M 54.5,122.5 C 58.0323,125.489 62.0323,127.989 66.5,130C 67.3802,131.356 67.7135,132.856 67.5,134.5C 62.5553,131.189 58.222,127.189 54.5,122.5 Z"/></g>
<g><path style="opacity:1" fill="#5294c1" d="M 100.5,111.5 C 112.866,120.016 124.866,129.016 136.5,138.5C 133.846,138.664 131.18,137.997 128.5,136.5C 128.5,135.5 128.5,134.5 128.5,133.5C 125.834,133.067 123.168,132.567 120.5,132C 120.833,131.667 121.167,131.333 121.5,131C 117.915,127.582 113.915,124.749 109.5,122.5C 108.808,123.025 108.308,123.692 108,124.5C 105.958,124.182 103.791,124.015 101.5,124C 100.167,123.333 100.167,122.667 101.5,122C 103.025,120.991 104.692,120.491 106.5,120.5C 106.649,119.448 106.483,118.448 106,117.5C 103.828,116.415 101.828,115.081 100,113.5C 99.3083,112.563 99.475,111.897 100.5,111.5 Z"/></g>
<g><path style="opacity:1" fill="#5886b4" d="M 41.5,129.5 C 39.9095,131.633 37.9095,133.299 35.5,134.5C 33.9731,134.427 32.9731,135.094 32.5,136.5C 30.9095,138.633 28.9095,140.299 26.5,141.5C 26.5,140.5 26.5,139.5 26.5,138.5C 29.9152,138.239 29.9152,137.072 26.5,135C 30.5888,136.149 33.5888,134.649 35.5,130.5C 37.4086,129.652 39.4086,129.318 41.5,129.5 Z"/></g>
<g><path style="opacity:0.008" fill="#d5eff7" d="M 35.5,134.5 C 35.0269,135.906 34.0269,136.573 32.5,136.5C 32.9731,135.094 33.9731,134.427 35.5,134.5 Z"/></g>
<g><path style="opacity:1" fill="#3a74a1" d="M -0.5,135.5 C 1.36637,136.014 3.19971,136.68 5,137.5C 5.77203,137.355 6.4387,137.022 7,136.5C 7.97345,138.392 8.64011,140.392 9,142.5C 10.5,143.333 11.6667,144.5 12.5,146C 14.1341,146.494 15.8008,146.66 17.5,146.5C 17.5,146.833 17.5,147.167 17.5,147.5C 15.5,148.833 13.5,148.833 11.5,147.5C 10.0892,145.086 8.08917,143.419 5.5,142.5C 3.5,140.833 1.5,139.167 -0.5,137.5C -0.5,136.833 -0.5,136.167 -0.5,135.5 Z"/></g>
<g><path style="opacity:0.329" fill="#acd1e5" d="M 71.5,138.5 C 74.4274,139.757 76.7607,141.757 78.5,144.5C 75.5726,143.243 73.2393,141.243 71.5,138.5 Z"/></g>
<g><path style="opacity:0.302" fill="#a9cddf" d="M 5.5,142.5 C 8.08917,143.419 10.0892,145.086 11.5,147.5C 8.91083,146.581 6.91083,144.914 5.5,142.5 Z"/></g>
<g><path style="opacity:0.004" fill="#d5f9ff" d="M 26.5,141.5 C 26.0269,142.906 25.0269,143.573 23.5,143.5C 23.5,143.167 23.5,142.833 23.5,142.5C 24.391,141.89 25.391,141.557 26.5,141.5 Z"/></g>
<g><path style="opacity:0.525" fill="#7199bd" d="M 23.5,142.5 C 23.5,142.833 23.5,143.167 23.5,143.5C 21.8525,145.326 19.8525,146.66 17.5,147.5C 17.5,147.167 17.5,146.833 17.5,146.5C 18.5336,145.313 19.867,144.48 21.5,144C 21.1667,143.667 20.8333,143.333 20.5,143C 21.448,142.517 22.448,142.351 23.5,142.5 Z"/></g>
<g><path style="opacity:0.294" fill="#a8d5e8" d="M 82.5,148.5 C 85.0892,149.419 87.0892,151.086 88.5,153.5C 85.9108,152.581 83.9108,150.914 82.5,148.5 Z"/></g>
<g><path style="opacity:0.29" fill="#b0d8e8" d="M 92.5,157.5 C 96.1002,159.43 99.1002,162.097 101.5,165.5C 97.8998,163.57 94.8998,160.903 92.5,157.5 Z"/></g>
<g><path style="opacity:1" fill="#3e86b8" d="M 105.5,169.5 C 103.833,168.5 102.5,167.167 101.5,165.5C 99.1002,162.097 96.1002,159.43 92.5,157.5C 90.8333,156.5 89.5,155.167 88.5,153.5C 87.0892,151.086 85.0892,149.419 82.5,148.5C 80.8333,147.5 79.5,146.167 78.5,144.5C 79.5832,144.539 80.5832,144.873 81.5,145.5C 82.9684,143.667 84.6351,143.334 86.5,144.5C 85.5,145.167 84.5,145.833 83.5,146.5C 85.1727,148.086 87.1727,148.753 89.5,148.5C 90.5578,154.553 94.2245,157.886 100.5,158.5C 100.343,159.873 100.51,161.207 101,162.5C 103.519,164.211 105.019,166.545 105.5,169.5 Z"/></g>
<g><path style="opacity:0.22" fill="#bbdeee" d="M 105.5,169.5 C 108.427,170.757 110.761,172.757 112.5,175.5C 109.573,174.243 107.239,172.243 105.5,169.5 Z"/></g>
<g><path style="opacity:0.38" fill="#b4d6e5" d="M 114.5,177.5 C 118.1,179.43 121.1,182.097 123.5,185.5C 119.9,183.57 116.9,180.903 114.5,177.5 Z"/></g>
<g><path style="opacity:0.525" fill="#74a7c8" d="M 183.5,171.5 C 183.5,172.167 183.5,172.833 183.5,173.5C 168.522,180.655 153.522,187.822 138.5,195C 136.119,195.738 134.119,195.238 132.5,193.5C 133.167,193.5 133.833,193.5 134.5,193.5C 135.873,193.657 137.207,193.49 138.5,193C 153.089,184.97 168.089,177.804 183.5,171.5 Z"/></g>
<g><path style="opacity:0.416" fill="#a9dcf3" d="M 127.5,189.5 C 129.749,190.08 131.415,191.413 132.5,193.5C 130.251,192.92 128.585,191.587 127.5,189.5 Z"/></g>
</svg>
