<?xml version="1.0" encoding="UTF-8"?>
<!DOCTYPE svg PUBLIC "-//W3C//DTD SVG 1.1//EN" "http://www.w3.org/Graphics/SVG/1.1/DTD/svg11.dtd">
<svg xmlns="http://www.w3.org/2000/svg" version="1.1" width="512px" height="512px" style="shape-rendering:geometricPrecision; text-rendering:geometricPrecision; image-rendering:optimizeQuality; fill-rule:evenodd; clip-rule:evenodd" xmlns:xlink="http://www.w3.org/1999/xlink">
<g><path style="opacity:0.994" fill="#d42428" d="M 233.5,-0.5 C 248.167,-0.5 262.833,-0.5 277.5,-0.5C 340.19,5.51525 393.524,30.8486 437.5,75.5C 436.761,75.369 436.094,75.5357 435.5,76C 410.299,101.368 384.965,126.535 359.5,151.5C 351.5,143.833 343.5,136.167 335.5,128.5C 335.5,127.833 335.167,127.5 334.5,127.5C 329.5,127.5 324.5,127.5 319.5,127.5C 319.5,131.5 319.5,135.5 319.5,139.5C 315.14,135.806 311.14,131.806 307.5,127.5C 302.167,127.5 296.833,127.5 291.5,127.5C 290.672,133.987 290.172,140.654 290,147.5C 285.251,142.581 280.417,137.914 275.5,133.5C 272.86,129.861 269.527,127.195 265.5,125.5C 255.473,115.14 245.473,104.807 235.5,94.5C 228.8,94.17 222.134,94.5033 215.5,95.5C 213.986,101.225 212.319,106.892 210.5,112.5C 204.833,107.167 199.167,101.833 193.5,96.5C 193.389,95.8826 193.056,95.3826 192.5,95C 186.175,94.5005 179.842,94.3338 173.5,94.5C 180.168,112.331 187.335,129.998 195,147.5C 195.168,169.337 195.668,191.004 196.5,212.5C 201.833,218.167 207.167,223.833 212.5,229.5C 148.009,220.667 122.342,248.334 135.5,312.5C 135.667,330.167 135.833,347.833 136,365.5C 137.341,368.022 138.174,370.689 138.5,373.5C 117.167,394.5 95.8333,415.5 74.5,436.5C 30.5254,392.635 5.5254,339.635 -0.5,277.5C -0.5,262.833 -0.5,248.167 -0.5,233.5C 11.9821,133.195 63.9821,61.6947 155.5,19C 180.687,8.70332 206.687,2.20332 233.5,-0.5 Z"/></g>
<g><path style="opacity:0.999" fill="#cb202c" d="M 437.5,75.5 C 480.995,119.165 505.662,171.832 511.5,233.5C 511.5,248.167 511.5,262.833 511.5,277.5C 510.575,285.231 509.242,292.898 507.5,300.5C 458.167,250.833 408.833,201.167 359.5,151.5C 384.965,126.535 410.299,101.368 435.5,76C 436.094,75.5357 436.761,75.369 437.5,75.5 Z"/></g>
<g><path style="opacity:1" fill="#fdf8f9" d="M 193.5,96.5 C 196.996,109.148 200.496,121.814 204,134.5C 206.482,127.234 208.649,119.901 210.5,112.5C 212.319,106.892 213.986,101.225 215.5,95.5C 222.134,94.5033 228.8,94.17 235.5,94.5C 228.957,111.924 222.123,129.257 215,146.5C 214.5,168.497 214.333,190.497 214.5,212.5C 208.5,212.5 202.5,212.5 196.5,212.5C 195.668,191.004 195.168,169.337 195,147.5C 187.335,129.998 180.168,112.331 173.5,94.5C 179.842,94.3338 186.175,94.5005 192.5,95C 193.056,95.3826 193.389,95.8826 193.5,96.5 Z"/></g>
<g><path style="opacity:1" fill="#ba202e" d="M 235.5,94.5 C 245.473,104.807 255.473,115.14 265.5,125.5C 251.416,121.46 241.583,126.127 236,139.5C 234.408,156.121 234.075,172.788 235,189.5C 236.014,207.603 245.514,215.103 263.5,212C 274.556,207.758 280.056,199.591 280,187.5C 280.667,173.5 280.667,159.5 280,145.5C 279.57,141.038 278.07,137.038 275.5,133.5C 280.417,137.914 285.251,142.581 290,147.5C 290.172,140.654 290.672,133.987 291.5,127.5C 291.047,152.877 291.547,178.21 293,203.5C 296.747,211.119 302.58,213.285 310.5,210C 312.041,208.629 313.375,207.129 314.5,205.5C 315.451,206.919 315.784,208.585 315.5,210.5C 322.167,210.5 328.833,210.5 335.5,210.5C 335.5,183.167 335.5,155.833 335.5,128.5C 343.5,136.167 351.5,143.833 359.5,151.5C 408.833,201.167 458.167,250.833 507.5,300.5C 493.277,375.192 454.277,433.026 390.5,474C 355.806,495.287 318.14,507.453 277.5,510.5C 275.801,510.66 274.134,510.494 272.5,510C 231.915,469.916 191.915,429.416 152.5,388.5C 156.987,391.741 161.987,393.908 167.5,395C 227.833,395.667 288.167,395.667 348.5,395C 367.338,392.829 379.505,382.663 385,364.5C 385.667,329.833 385.667,295.167 385,260.5C 379.346,241.922 366.846,231.756 347.5,230C 302.501,229.5 257.501,229.333 212.5,229.5C 207.167,223.833 201.833,218.167 196.5,212.5C 202.5,212.5 208.5,212.5 214.5,212.5C 214.333,190.497 214.5,168.497 215,146.5C 222.123,129.257 228.957,111.924 235.5,94.5 Z"/></g>
<g><path style="opacity:1" fill="#bb2531" d="M 193.5,96.5 C 199.167,101.833 204.833,107.167 210.5,112.5C 208.649,119.901 206.482,127.234 204,134.5C 200.496,121.814 196.996,109.148 193.5,96.5 Z"/></g>
<g><path style="opacity:1" fill="#fdfafa" d="M 265.5,125.5 C 269.527,127.195 272.86,129.861 275.5,133.5C 278.07,137.038 279.57,141.038 280,145.5C 280.667,159.5 280.667,173.5 280,187.5C 280.056,199.591 274.556,207.758 263.5,212C 245.514,215.103 236.014,207.603 235,189.5C 234.075,172.788 234.408,156.121 236,139.5C 241.583,126.127 251.416,121.46 265.5,125.5 Z"/></g>
<g><path style="opacity:1" fill="#fdfafa" d="M 291.5,127.5 C 296.833,127.5 302.167,127.5 307.5,127.5C 307.177,150.212 307.511,172.879 308.5,195.5C 312.363,198.381 315.863,198.048 319,194.5C 319.5,176.17 319.667,157.836 319.5,139.5C 319.5,135.5 319.5,131.5 319.5,127.5C 324.5,127.5 329.5,127.5 334.5,127.5C 334.5,154.833 334.5,182.167 334.5,209.5C 328.5,209.5 322.5,209.5 316.5,209.5C 316.662,207.473 316.495,205.473 316,203.5C 315.283,204.044 314.783,204.711 314.5,205.5C 313.375,207.129 312.041,208.629 310.5,210C 302.58,213.285 296.747,211.119 293,203.5C 291.547,178.21 291.047,152.877 291.5,127.5 Z"/></g>
<g><path style="opacity:1" fill="#ba202e" d="M 307.5,127.5 C 311.14,131.806 315.14,135.806 319.5,139.5C 319.667,157.836 319.5,176.17 319,194.5C 315.863,198.048 312.363,198.381 308.5,195.5C 307.511,172.879 307.177,150.212 307.5,127.5 Z"/></g>
<g><path style="opacity:1" fill="#e9b8bc" d="M 334.5,127.5 C 335.167,127.5 335.5,127.833 335.5,128.5C 335.5,155.833 335.5,183.167 335.5,210.5C 328.833,210.5 322.167,210.5 315.5,210.5C 315.784,208.585 315.451,206.919 314.5,205.5C 314.783,204.711 315.283,204.044 316,203.5C 316.495,205.473 316.662,207.473 316.5,209.5C 322.5,209.5 328.5,209.5 334.5,209.5C 334.5,182.167 334.5,154.833 334.5,127.5 Z"/></g>
<g><path style="opacity:1" fill="#ba2330" d="M 253.5,138.5 C 255.857,138.337 258.19,138.503 260.5,139C 262.333,139.5 263.5,140.667 264,142.5C 264.667,159.833 264.667,177.167 264,194.5C 258.833,200.092 254.167,199.759 250,193.5C 249.333,176.833 249.333,160.167 250,143.5C 250.997,141.677 252.164,140.01 253.5,138.5 Z"/></g>
<g><path style="opacity:1" fill="#fefdfd" d="M 212.5,229.5 C 257.501,229.333 302.501,229.5 347.5,230C 366.846,231.756 379.346,241.922 385,260.5C 385.667,295.167 385.667,329.833 385,364.5C 379.505,382.663 367.338,392.829 348.5,395C 288.167,395.667 227.833,395.667 167.5,395C 161.987,393.908 156.987,391.741 152.5,388.5C 147.156,384.155 142.489,379.155 138.5,373.5C 138.174,370.689 137.341,368.022 136,365.5C 135.833,347.833 135.667,330.167 135.5,312.5C 122.342,248.334 148.009,220.667 212.5,229.5 Z"/></g>
<g><path style="opacity:1" fill="#ba222f" d="M 207.5,259.5 C 207.5,263.833 207.5,268.167 207.5,272.5C 200.646,272.176 193.979,272.509 187.5,273.5C 187.5,304.5 187.5,335.5 187.5,366.5C 181.833,366.5 176.167,366.5 170.5,366.5C 170.5,335.167 170.5,303.833 170.5,272.5C 164.5,272.5 158.5,272.5 152.5,272.5C 152.5,268.167 152.5,263.833 152.5,259.5C 170.833,259.5 189.167,259.5 207.5,259.5 Z"/></g>
<g><path style="opacity:1" fill="#ba222f" d="M 277.5,259.5 C 277.168,269.522 277.501,279.522 278.5,289.5C 279.107,289.376 279.44,289.043 279.5,288.5C 285.38,284.473 291.713,283.64 298.5,286C 301.106,287.938 302.939,290.438 304,293.5C 305.629,312.768 305.962,332.102 305,351.5C 303.998,363.187 297.831,368.02 286.5,366C 282.996,364.082 279.663,361.916 276.5,359.5C 275.232,361.304 274.565,363.304 274.5,365.5C 269.833,365.5 265.167,365.5 260.5,365.5C 260.5,330.167 260.5,294.833 260.5,259.5C 266.167,259.5 271.833,259.5 277.5,259.5 Z"/></g>
<g><path style="opacity:1" fill="#ebc0c4" d="M 277.5,259.5 C 278.167,269.167 278.833,278.833 279.5,288.5C 279.44,289.043 279.107,289.376 278.5,289.5C 277.501,279.522 277.168,269.522 277.5,259.5 Z"/></g>
<g><path style="opacity:1" fill="#d26f78" d="M 207.5,259.5 C 208.486,263.97 208.819,268.637 208.5,273.5C 201.5,273.5 194.5,273.5 187.5,273.5C 193.979,272.509 200.646,272.176 207.5,272.5C 207.5,268.167 207.5,263.833 207.5,259.5 Z"/></g>
<g><path style="opacity:1" fill="#d67c84" d="M 152.5,272.5 C 158.5,272.5 164.5,272.5 170.5,272.5C 170.5,303.833 170.5,335.167 170.5,366.5C 169.502,335.671 169.169,304.671 169.5,273.5C 163.642,273.822 157.975,273.489 152.5,272.5 Z"/></g>
<g><path style="opacity:1" fill="#bb2531" d="M 333.5,282.5 C 343.615,280.657 351.781,283.657 358,291.5C 358.92,294.101 359.587,296.768 360,299.5C 360.5,309.161 360.666,318.828 360.5,328.5C 350.5,328.5 340.5,328.5 330.5,328.5C 330.334,335.841 330.5,343.174 331,350.5C 331.374,351.416 331.874,352.25 332.5,353C 336.039,354.504 339.705,354.837 343.5,354C 345.487,352.681 346.654,350.848 347,348.5C 347.498,345.183 347.665,341.85 347.5,338.5C 351.833,338.5 356.167,338.5 360.5,338.5C 361.839,359.668 352.172,368.835 331.5,366C 323.263,362.088 318.429,355.588 317,346.5C 316.333,331.5 316.333,316.5 317,301.5C 319.15,292.188 324.65,285.855 333.5,282.5 Z"/></g>
<g><path style="opacity:1" fill="#ba212e" d="M 222.5,349.5 C 225.432,354.668 228.599,354.668 232,349.5C 232.5,328.836 232.667,308.169 232.5,287.5C 238.167,287.5 243.833,287.5 249.5,287.5C 249.5,313.833 249.5,340.167 249.5,366.5C 245.167,366.5 240.833,366.5 236.5,366.5C 236.665,363.15 236.498,359.817 236,356.5C 235.283,357.044 234.783,357.711 234.5,358.5C 230.992,363.077 226.326,365.91 220.5,367C 210.326,368.328 205.326,363.828 205.5,353.5C 205.5,331.5 205.5,309.5 205.5,287.5C 210.833,287.5 216.167,287.5 221.5,287.5C 221.169,308.34 221.503,329.007 222.5,349.5 Z"/></g>
<g><path style="opacity:1" fill="#fefdfd" d="M 281.5,294.5 C 285.516,293.9 289.016,294.9 292,297.5C 292.667,314.833 292.667,332.167 292,349.5C 289.442,353.212 285.942,354.378 281.5,353C 279.951,351.786 278.785,350.286 278,348.5C 277.333,331.833 277.333,315.167 278,298.5C 279.376,297.295 280.542,295.962 281.5,294.5 Z"/></g>
<g><path style="opacity:1" fill="#fefbfb" d="M 346.5,302.5 C 346.5,306.5 346.5,310.5 346.5,314.5C 341.167,314.5 335.833,314.5 330.5,314.5C 330.334,310.486 330.501,306.486 331,302.5C 336.294,295.853 341.46,295.853 346.5,302.5 Z"/></g>
<g><path style="opacity:1" fill="#d87f85" d="M 346.5,302.5 C 347.485,306.634 347.818,310.968 347.5,315.5C 341.642,315.822 335.975,315.489 330.5,314.5C 335.833,314.5 341.167,314.5 346.5,314.5C 346.5,310.5 346.5,306.5 346.5,302.5 Z"/></g>
<g><path style="opacity:1" fill="#d26f77" d="M 222.5,349.5 C 221.503,329.007 221.169,308.34 221.5,287.5C 216.167,287.5 210.833,287.5 205.5,287.5C 205.5,309.5 205.5,331.5 205.5,353.5C 204.503,331.34 204.169,309.006 204.5,286.5C 210.5,286.5 216.5,286.5 222.5,286.5C 222.5,307.5 222.5,328.5 222.5,349.5 Z"/></g>
<g><path style="opacity:1" fill="#dc8d94" d="M 236.5,366.5 C 235.833,363.833 235.167,361.167 234.5,358.5C 234.783,357.711 235.283,357.044 236,356.5C 236.498,359.817 236.665,363.15 236.5,366.5 Z"/></g>
<g><path style="opacity:0.999" fill="#cc202d" d="M 138.5,373.5 C 142.489,379.155 147.156,384.155 152.5,388.5C 191.915,429.416 231.915,469.916 272.5,510C 274.134,510.494 275.801,510.66 277.5,510.5C 277.5,510.833 277.5,511.167 277.5,511.5C 262.833,511.5 248.167,511.5 233.5,511.5C 171.321,505.573 118.321,480.573 74.5,436.5C 95.8333,415.5 117.167,394.5 138.5,373.5 Z"/></g>
</svg>
